<svg width="12" height="10" viewBox="0 0 12 10" fill="none" xmlns="http://www.w3.org/2000/svg">
<path d="M4.86724 0.214335L9.08645 7.06244C9.18046 7.21582 9.17146 7.41218 9.06045 7.55578C8.55943 8.2064 8.0514 8.78766 7.62438 9.17549C7.62438 9.17549 7.28236 9.50959 7.06535 9.65418C6.76934 9.88766 6.38232 10 6.0063 10C5.58428 10 5.18526 9.87691 4.86624 9.63171C4.80924 9.57602 4.55823 9.36403 4.35322 9.16377C3.07715 7.99539 0.969048 4.94549 0.330016 3.34141C0.227011 3.10793 0.0120006 2.48466 0 2.16131C0 1.84967 0.0680034 1.54879 0.217011 1.25962C0.422021 0.90403 0.740037 0.625612 1.11706 0.469307C1.37907 0.368686 2.16511 0.213358 2.18811 0.213358C2.74914 0.112736 3.53718 0.0375146 4.45722 0.00039219C4.62223 -0.00644615 4.78224 0.0765909 4.86724 0.214335Z" fill="url(#paint0_linear)"/>
<path opacity="0.4" d="M7.13972 0.672307C6.95271 0.370443 7.19173 -0.00957327 7.55074 0.00508032C8.39279 0.0412258 9.13482 0.103748 9.68685 0.179946C9.69885 0.191669 10.6779 0.346997 11.0089 0.525771C11.6239 0.837404 12 1.44895 12 2.1064V2.16111C11.989 2.58509 11.6129 3.48677 11.5899 3.48677C11.4009 3.94103 11.0809 4.53402 10.6959 5.17194C10.5219 5.45915 10.0949 5.46598 9.91786 5.17877L7.13972 0.672307Z" fill="url(#paint1_linear)"/>
<defs>
<linearGradient id="paint0_linear" x1="-5.47605e-08" y1="4.14729" x2="9.15089" y2="4.14729" gradientUnits="userSpaceOnUse">
<stop stop-color="#725BFF"/>
<stop offset="0.526042" stop-color="#00E5CC"/>
<stop offset="1" stop-color="#30BAFF"/>
</linearGradient>
<linearGradient id="paint1_linear" x1="7.07446" y1="2.23845" x2="12" y2="2.23845" gradientUnits="userSpaceOnUse">
<stop stop-color="#725BFF"/>
<stop offset="0.526042" stop-color="#00E5CC"/>
<stop offset="1" stop-color="#30BAFF"/>
</linearGradient>
</defs>
</svg>
