<svg width="155" height="32" viewBox="0 0 155 32" fill="none" xmlns="http://www.w3.org/2000/svg">
<path fill-rule="evenodd" clip-rule="evenodd" d="M17.8347 1.36829C18.2285 0.614175 17.3239 -0.298899 16.5829 0.0946941C15.98 0.339369 15.827 1.2282 16.2962 1.6779C16.7391 2.14647 17.6061 1.98301 17.8347 1.36829ZM9.5865 1.70093C9.6324 1.20119 9.06256 0.781101 8.6124 0.969846C7.98578 1.13989 7.91625 2.14508 8.52417 2.38491C8.983 2.64275 9.63427 2.24344 9.5865 1.70093ZM24.7993 0.960149C24.122 1.18699 24.2334 2.31357 24.9368 2.40015C25.4172 2.52534 25.7732 2.12881 25.8834 1.69573C25.8065 1.18855 25.3246 0.699196 24.7993 0.960149ZM12.1367 5.55288C12.2524 4.66249 11.1786 3.94041 10.426 4.42526C9.72114 4.79236 9.62424 5.8876 10.2638 6.365C10.9253 6.97279 12.0976 6.45192 12.1367 5.55288ZM23.9932 4.88967C23.611 4.03166 22.2505 4.05833 21.9147 4.93972C21.495 5.79911 22.3418 6.78076 23.2333 6.61123C23.9063 6.38422 24.3709 5.55738 23.9932 4.88967ZM17 5.18751C16.2932 5.23911 15.6157 5.80361 15.623 6.56119C15.5827 7.18024 16.0169 7.68586 16.5325 7.9437C16.5844 7.94687 16.637 7.95112 16.69 7.9554C16.9812 7.97896 17.2836 8.00342 17.5457 7.85383C18.223 7.54872 18.5559 6.6334 18.181 5.96863C17.9799 5.48673 17.4689 5.28327 17 5.18751ZM5.12451 8.78093C5.38478 8.02024 4.45726 7.23461 3.76978 7.66508C3.17053 7.94664 3.08655 8.89296 3.61644 9.28656C4.11284 9.70664 4.9812 9.43894 5.12451 8.78093ZM30.6993 8.48171C30.7688 7.73158 29.8063 7.2024 29.223 7.6637C28.6245 8.03807 28.6896 9.03738 29.3272 9.32933C29.9063 9.68154 30.7384 9.16569 30.6993 8.48171ZM21.6108 9.96898C21.0622 9.09487 19.9189 8.6734 18.9564 9.0256C17.7567 9.39703 17.0459 10.88 17.5338 12.0649C17.9636 13.3885 19.6627 14.0033 20.8264 13.2781C21.9494 12.6649 22.3345 11.0376 21.6108 9.96898ZM16.3267 10.1711C15.8114 9.05954 14.3757 8.62924 13.309 9.14214C12.172 9.65937 11.6489 11.1851 12.238 12.3084C12.7633 13.4699 14.2947 13.946 15.3801 13.3181C16.4642 12.7595 16.9331 11.253 16.3267 10.1711ZM9.03791 9.90855C8.38375 9.95565 7.73537 10.4112 7.65428 11.1113C7.49703 11.9352 8.21885 12.7695 9.04216 12.6973C9.7905 12.7016 10.3362 11.9986 10.3824 11.2793C10.3058 10.5527 9.74273 9.99513 9.03791 9.90855ZM26.3378 11.2782C26.3754 10.2892 25.2017 9.55963 24.3564 10.0608C23.449 10.4966 23.3808 11.9382 24.2551 12.45C25.0968 13.0647 26.3958 12.3262 26.3378 11.2782ZM13.6145 14.8774C13.1296 13.9518 11.9993 13.4772 11.0108 13.7543C9.67048 14.0843 8.88457 15.7647 9.53159 17.0185C10.0946 18.3863 12.0457 18.7887 13.1036 17.7865C13.9285 17.1032 14.1456 15.809 13.6145 14.8774ZM24.3289 14.7382C23.8123 13.8464 22.6833 13.4691 21.7223 13.7491C20.372 14.1257 19.657 15.8708 20.3676 17.1056C20.9537 18.2994 22.6037 18.7002 23.669 17.9368C24.6859 17.2793 25.012 15.7581 24.3289 14.7382ZM6.10711 16.4059C6.45306 15.5435 5.5065 14.5837 4.65259 14.9127C3.83353 15.1485 3.59026 16.3588 4.24731 16.9027C4.80882 17.4819 5.8958 17.1915 6.10711 16.4059ZM29.0167 14.7653C28.2911 14.8052 27.7734 15.4434 27.7981 16.1641C27.9399 16.5002 28.1121 16.8511 28.4478 17.0249C29.1642 17.4273 30.1774 16.8452 30.1239 15.9887C30.1701 15.3402 29.6015 14.8597 29.0167 14.7653ZM1.48583 16.142C1.60313 15.5608 0.967673 15.1073 0.453933 15.3357C0.0299529 15.5326 -0.155347 16.1214 0.154223 16.5032C0.504593 17.053 1.45829 16.8 1.48583 16.142ZM33.9317 15.6793C33.7884 15.2488 33.208 15.0602 32.8462 15.3226C32.2443 15.6497 32.4802 16.7818 33.2095 16.7141C33.729 16.7936 34.1748 16.1494 33.9317 15.6793ZM16.6146 20.6892C16.6061 19.2713 15.153 18.1231 13.8011 18.4812C12.7908 18.7039 12.0107 19.6826 12.0136 20.7356C11.9789 21.8365 12.8182 22.886 13.8878 23.0614C15.2716 23.3924 16.7029 22.1219 16.6146 20.6892ZM22.0016 20.707C22.0234 19.2564 20.5269 18.0876 19.1548 18.4782C18.3413 18.6841 17.6525 19.3671 17.4728 20.2069C17.1168 21.4672 18.0576 22.894 19.3326 23.062C20.6875 23.3409 22.074 22.1132 22.0016 20.707ZM10.2871 21.1832C10.6721 20.2649 9.782 19.186 8.83255 19.351C7.80626 19.4569 7.26498 20.8602 7.99003 21.6279C8.60815 22.4272 10.0062 22.1617 10.2871 21.1832ZM26.3536 20.7148C26.4187 19.7789 25.3795 19.0329 24.5329 19.3941C23.5097 19.7253 23.339 21.3143 24.2767 21.8542C25.1046 22.4556 26.3876 21.7451 26.3536 20.7148ZM29.878 22.5304C29.1919 22.4138 28.5898 23.2481 28.9213 23.8776C29.1455 24.5143 30.0805 24.6661 30.4933 24.134C30.7801 23.8628 30.7292 23.4513 30.6849 23.0924C30.6822 23.0709 30.6796 23.0496 30.677 23.0285C30.6649 23.0158 30.6528 23.003 30.6406 22.99C30.4317 22.7691 30.2007 22.5248 29.878 22.5304ZM5.18673 23.6829C5.33089 22.9193 4.40813 22.2708 3.76689 22.7056C3.15608 23.0227 3.13432 24.0131 3.72473 24.361C4.27485 24.7442 5.11006 24.3582 5.18673 23.6829ZM18.2647 25.4282C18.3442 24.4864 17.2748 23.742 16.4353 24.1193C15.4236 24.4493 15.2716 26.028 16.1834 26.5647C17.0041 27.1896 18.3269 26.4689 18.2647 25.4282ZM12.1771 26.6073C12.2422 25.7922 11.2828 25.1304 10.5677 25.5136C10.064 25.7053 9.85867 26.2713 9.84983 26.7795C10.022 27.2459 10.3722 27.7363 10.9093 27.748C11.5577 27.8469 12.1989 27.2765 12.1771 26.6073ZM24.1638 26.5989C24.2334 25.7272 23.1884 25.0625 22.4531 25.5253C21.7352 25.8983 21.6543 27.026 22.3171 27.495C23.0017 28.0935 24.1827 27.5099 24.1638 26.5989ZM25.109 29.5037C24.578 29.6187 24.1929 30.226 24.52 30.73C24.8557 31.3153 25.8356 31.106 25.8978 30.4235C25.9876 29.9193 25.5361 29.5922 25.109 29.5037ZM9.02057 29.5996C8.55885 29.4957 8.24333 29.8928 8.11311 30.2923C8.16003 30.8656 8.77458 31.3638 9.3043 31C9.89335 30.6815 9.6936 29.6483 9.02057 29.5996ZM17.4034 30.1861C16.9084 29.8722 16.1573 30.1596 16.0285 30.7506C15.793 31.3477 16.3585 32.0694 16.9852 31.9946C17.3225 32.0034 17.583 31.7588 17.7856 31.5141C17.825 31.3491 17.8652 31.1839 17.91 31.0189L17.9073 31.0084C17.8239 30.6938 17.7269 30.3276 17.4034 30.1861ZM46.2 23.1401C48.7 23.1401 50.62 21.9801 51.84 20.4601L49.78 18.6801C48.92 19.7401 47.68 20.4801 46.2 20.4801C43.66 20.4801 41.9 18.5801 41.9 15.9401C41.9 13.1001 43.74 11.3001 46.16 11.3001C47.62 11.3001 48.82 11.9801 49.74 13.1001L51.82 11.3601C50.3 9.50012 48.2 8.62012 46.16 8.62012C41.56 8.62012 38.96 11.8801 38.96 15.9401C38.96 20.6201 42.24 23.1401 46.2 23.1401ZM55.2536 23.0001H58.1936L59.1536 20.1601H64.5936L65.5736 23.0001H68.5135L63.2336 8.80012H60.5136L55.2536 23.0001ZM59.9536 17.7601L61.8536 12.2001H61.8936L63.7936 17.7601H59.9536ZM75.6403 23.0001H72.8603V8.80012H78.2403C81.6603 8.80012 83.1803 10.8001 83.1803 13.5201C83.1803 15.6801 82.1803 17.1601 80.2203 17.8001L83.7803 23.0001H80.4403L77.2603 18.1401H75.6403V23.0001ZM75.6403 11.3001V15.6601H77.6803C79.4003 15.6601 80.2803 14.7801 80.2803 13.4801C80.2803 12.1601 79.4203 11.3001 77.8003 11.3001H75.6403ZM88.4657 23.0001H93.2257C97.7857 23.0001 100.546 20.1001 100.546 15.9201C100.546 11.7201 97.6657 8.80012 93.1657 8.80012H88.4657V23.0001ZM91.2457 20.5001V11.3001H93.2057C95.7857 11.3001 97.6057 13.2601 97.6057 15.9201C97.6057 18.5201 95.8057 20.5001 93.0457 20.5001H91.2457ZM106.475 23.0001H103.535L108.795 8.80012H111.515L116.795 23.0001H113.855L112.875 20.1601H107.435L106.475 23.0001ZM110.135 12.2001L108.235 17.7601H112.075L110.175 12.2001H110.135ZM121.142 23.0001H123.942V13.6201H123.982L130.282 23.0001H133.102V8.80012H130.322V18.3801H130.282L123.902 8.80012H121.142V23.0001ZM152.58 15.9001C152.58 20.2201 149.52 23.1801 145.36 23.1801C141.06 23.1801 138.12 20.1201 138.12 15.9001C138.12 11.6801 141.06 8.62012 145.36 8.62012C149.52 8.62012 152.58 11.5601 152.58 15.9001ZM141.04 15.9001C141.04 18.4801 142.8 20.5401 145.36 20.5401C147.8 20.5401 149.64 18.5801 149.64 15.9001C149.64 13.2201 147.8 11.2601 145.36 11.2601C142.8 11.2601 141.04 13.3201 141.04 15.9001Z" fill="#4B4C4C"/>
</svg>
