<svg width="10" height="10" viewBox="0 0 10 10" fill="none" xmlns="http://www.w3.org/2000/svg">
<path fill-rule="evenodd" clip-rule="evenodd" d="M6.31763 9.3186C5.28654 9.56047 4.21346 9.56047 3.18237 9.3186C1.69333 8.96932 0.530675 7.80667 0.181396 6.31763C-0.0604664 5.28654 -0.0604663 4.21346 0.181396 3.18237C0.530677 1.69333 1.69333 0.530675 3.18237 0.181395C4.21346 -0.0604663 5.28654 -0.0604652 6.31763 0.181396C7.80667 0.530677 8.96932 1.69333 9.3186 3.18236C9.56047 4.21346 9.56047 5.28654 9.3186 6.31764C8.96932 7.80667 7.80667 8.96932 6.31763 9.3186ZM4.75001 5.76048C4.47098 5.76048 4.24478 5.98668 4.24478 6.26572C4.24478 6.54475 4.47098 6.77095 4.75001 6.77095C5.02905 6.77095 5.25525 6.54475 5.25525 6.26572C5.25525 5.98668 5.02905 5.76048 4.75001 5.76048ZM4.75001 5.38156C4.54074 5.38156 4.37109 5.21191 4.37109 5.00263L4.37109 2.98169C4.37109 2.77242 4.54074 2.60277 4.75001 2.60277C4.95929 2.60277 5.12894 2.77242 5.12894 2.98169L5.12894 5.00263C5.12894 5.21191 4.95929 5.38156 4.75001 5.38156Z" fill="#FD5673"/>
</svg>
