<svg width="142" height="37" viewBox="0 0 142 37" fill="none" xmlns="http://www.w3.org/2000/svg">
<path d="M22.2252 26.4172H0.931885V10.3291C0.931885 4.62302 5.58979 0 11.339 0H22.2252C29.5714 0 35.5335 5.91746 35.5335 13.2086C35.5335 20.4998 29.5714 26.4172 22.2252 26.4172Z" fill="url(#paint0_linear)"/>
<path d="M11.5785 10.5669C5.05746 7.31757 4.52513 4.09467 5.11069 2.06055C2.58211 3.93617 0.931885 6.94773 0.931885 10.3291V26.4172H22.2252C25.3659 26.4172 28.2405 25.3341 30.503 23.5377C29.3851 15.7183 20.4685 14.9786 11.5785 10.5669Z" fill="url(#paint1_linear)"/>
<path d="M0.931885 13.2085V26.4171V30.1683C0.931885 34.5008 5.53656 37.3274 9.44921 35.399L10.7268 34.7649C17.1148 31.5949 16.4494 22.3489 9.68875 20.1034C4.84453 18.5184 0.931885 17.4617 0.931885 13.2085Z" fill="url(#paint2_linear)"/>
<path d="M12.936 0C14.4797 1.71712 17.7802 3.88333 24.8868 5.28344C28.9858 6.10238 32.3129 7.66099 34.9745 9.43095C33.3509 3.989 28.2405 0 22.2252 0H12.936Z" fill="url(#paint3_linear)"/>
<path d="M44.1573 28.7947C43.971 28.9797 43.7314 29.0589 43.4653 29.0589C43.1991 29.0589 42.9596 28.9797 42.7732 28.7947C42.5869 28.6098 42.4805 28.3985 42.4805 28.1343V13.7369C42.4805 13.4727 42.5869 13.235 42.7732 13.0501C42.9596 12.8651 43.1991 12.7859 43.4653 12.7859H47.7506C49.108 12.7859 50.2525 13.235 51.2107 14.1332C52.1689 15.0314 52.648 16.1409 52.648 17.4882C52.648 18.809 52.1689 19.9185 51.2107 20.8167C50.2525 21.7149 49.108 22.164 47.7506 22.164H44.4235V28.1079C44.4501 28.3721 44.3436 28.6098 44.1573 28.7947ZM44.4501 20.262H47.8038C48.6289 20.262 49.3209 19.9714 49.9065 19.4166C50.4654 18.8619 50.7582 18.2014 50.7582 17.4353C50.7582 16.6692 50.4654 16.0088 49.9065 15.454C49.3476 14.9257 48.6555 14.6615 47.8038 14.6615H44.4767V20.262H44.4501Z" fill="#191B1F"/>
<path d="M61.8308 28.7418C61.0855 29.0588 60.3136 29.1909 59.4885 29.1909C58.6634 29.1909 57.8915 29.0324 57.1462 28.7418C56.401 28.4513 55.7356 28.0022 55.1766 27.421C53.9789 26.2322 53.3933 24.8057 53.3933 23.1414C53.3933 21.4507 53.9789 20.0242 55.1766 18.8354C56.3744 17.673 57.8117 17.0654 59.4885 17.0654C61.192 17.0654 62.6293 17.6466 63.827 18.8354C64.386 19.3901 64.8384 20.0506 65.1312 20.7903C65.4506 21.5299 65.5837 22.3225 65.5837 23.115C65.5837 24.7793 64.9981 26.2058 63.8004 27.3946C63.2414 28.0022 62.576 28.4513 61.8308 28.7418ZM59.4619 27.2889C60.633 27.2889 61.6178 26.8662 62.4429 26.0473C63.2414 25.2548 63.6407 24.2773 63.6407 23.1414C63.6407 21.979 63.2414 21.0016 62.4429 20.2091C61.6445 19.4166 60.633 18.9939 59.4619 18.9939C58.2908 18.9939 57.3059 19.3901 56.5074 20.2091C55.7089 21.028 55.2831 22.0055 55.2831 23.1414C55.2831 24.2773 55.6823 25.2548 56.5074 26.0473C57.3326 26.8926 58.3174 27.2889 59.4619 27.2889Z" fill="#191B1F"/>
<path d="M69.0438 28.7947C68.8575 28.9797 68.6179 29.0589 68.3518 29.0589C68.0856 29.0589 67.846 28.9797 67.6597 28.7947C67.4734 28.6098 67.3669 28.3985 67.3669 28.1343V13.7369C67.3669 13.4727 67.4734 13.235 67.6597 13.0501C67.846 12.8651 68.0856 12.7859 68.3518 12.7859C68.6179 12.7859 68.8575 12.8651 69.0438 13.0501C69.2301 13.235 69.3366 13.4463 69.3366 13.7369V28.1343C69.3366 28.3721 69.2301 28.6098 69.0438 28.7947Z" fill="#191B1F"/>
<path d="M72.8767 29.0591C72.6105 29.0591 72.3709 28.9798 72.1846 28.7949C71.9983 28.61 71.8918 28.3987 71.8918 28.1345V13.7371C71.8918 13.4729 71.9983 13.2616 72.1846 13.0767C72.3709 12.8918 72.6105 12.8125 72.8767 12.8125C73.1428 12.8125 73.3824 12.8918 73.5687 13.0767C73.755 13.2616 73.8349 13.4729 73.8349 13.7371V22.6133L79.2114 17.4355C79.3978 17.277 79.6107 17.1978 79.8236 17.1978C80.0898 17.1978 80.3027 17.3034 80.5157 17.4883V17.5148C80.6754 17.6733 80.7552 17.8846 80.7552 18.1488C80.7552 18.413 80.6487 18.6243 80.4624 18.8092L77.1087 22.0057L80.7818 27.5797C80.8883 27.7382 80.9415 27.9231 80.9415 28.1345C80.9415 28.4779 80.8084 28.7421 80.5157 28.927C80.3826 29.0327 80.2229 29.0855 80.0099 29.0855C79.6639 29.0855 79.3978 28.9534 79.1848 28.6628L75.6714 23.3794L73.7816 25.1493V28.1609C73.7816 28.4251 73.6752 28.6364 73.4888 28.8213C73.3558 28.9798 73.1428 29.0591 72.8767 29.0591Z" fill="#191B1F"/>
<path d="M88.0215 29.2176C87.1964 29.2176 86.4245 29.059 85.6792 28.7685C84.934 28.4779 84.2685 28.0288 83.7096 27.4476C82.5118 26.2588 81.9263 24.8323 81.9263 23.168C81.9263 21.4773 82.5118 20.0508 83.7096 18.862C84.9073 17.6996 86.3446 17.092 88.0215 17.092C89.6983 17.092 91.1356 17.6732 92.3334 18.8356C93.5045 19.9715 94.0901 21.3716 94.1433 23.0887V28.0816C94.1433 28.3722 94.0368 28.61 93.8505 28.7949C93.6642 28.9798 93.4247 29.0855 93.1319 29.0855C92.8657 29.0855 92.6262 28.9798 92.4665 28.7949C92.3068 28.61 92.2003 28.3722 92.2003 28.0816V27.4476C90.9759 28.61 89.5919 29.2176 88.0215 29.2176ZM88.0215 27.2891C89.1926 27.2891 90.1774 26.8664 91.0025 26.0475C91.801 25.255 92.2003 24.2775 92.2003 23.1416C92.2003 21.9792 91.801 21.0018 91.0025 20.2093C90.204 19.4168 89.1926 18.9941 88.0215 18.9941C86.8503 18.9941 85.8655 19.3903 85.067 20.2093C84.2685 21.0282 83.8427 22.0056 83.8427 23.1416C83.8427 24.2775 84.2419 25.255 85.067 26.0475C85.8922 26.8928 86.877 27.2891 88.0215 27.2891Z" fill="#191B1F"/>
<path d="M98.748 33.4179C98.402 33.2594 98.2423 32.9952 98.2423 32.6518C98.2423 32.4933 98.2956 32.3348 98.3754 32.1763L100.159 28.1609L95.7936 18.4393C95.7404 18.3336 95.7137 18.1751 95.7137 18.0166C95.7137 17.911 95.7404 17.8053 95.767 17.6996C95.8734 17.4355 96.0331 17.2505 96.2727 17.1713C96.4058 17.1185 96.5122 17.092 96.6453 17.092C96.8316 17.092 97.018 17.1449 97.1777 17.2505C97.3374 17.3562 97.4438 17.4883 97.5503 17.6732L101.17 25.9154L104.843 17.6732C104.923 17.4883 105.03 17.3562 105.189 17.2505C105.349 17.1449 105.509 17.092 105.695 17.092C105.855 17.092 105.988 17.1185 106.121 17.1977C106.494 17.3826 106.68 17.6732 106.68 18.0695C106.68 18.2016 106.653 18.3336 106.6 18.4657L100.079 32.9424C99.999 33.1273 99.866 33.2594 99.7063 33.3651C99.5466 33.4707 99.3602 33.5236 99.1739 33.5236C99.0142 33.4971 98.8811 33.4707 98.748 33.4179Z" fill="#191B1F"/>
<path d="M109.954 15.1108C109.741 15.3221 109.475 15.4278 109.155 15.4278C108.836 15.4278 108.57 15.3221 108.357 15.1108C108.144 14.8994 108.037 14.6353 108.037 14.3183C108.037 14.0013 108.144 13.7371 108.357 13.5257C108.57 13.3144 108.836 13.2087 109.155 13.2087C109.475 13.2087 109.741 13.3144 109.954 13.5257C110.167 13.7371 110.273 14.0013 110.273 14.3183C110.273 14.6353 110.167 14.8994 109.954 15.1108ZM109.821 28.7685C109.634 28.9534 109.421 29.0591 109.155 29.0591C108.889 29.0591 108.649 28.9534 108.463 28.7685C108.277 28.5836 108.17 28.3458 108.17 28.0816V18.0167C108.17 17.7525 108.277 17.5147 108.463 17.3298C108.649 17.1449 108.889 17.0392 109.155 17.0392C109.421 17.0392 109.661 17.1449 109.847 17.3298C110.033 17.5147 110.113 17.7525 110.113 18.0167V28.0816C110.113 28.3722 110.007 28.5836 109.821 28.7685Z" fill="#191B1F"/>
<path d="M118.045 29.1909C116.368 29.1909 114.904 28.6098 113.707 27.421C113.121 26.8398 112.695 26.2058 112.376 25.4661C112.056 24.7264 111.923 23.9603 111.923 23.1414C111.923 21.4507 112.509 20.0242 113.707 18.8354C114.904 17.673 116.342 17.0654 118.045 17.0654C118.87 17.0654 119.642 17.2239 120.387 17.5145C121.133 17.8315 121.798 18.2542 122.357 18.809C123.528 19.9977 124.14 21.3979 124.167 23.0621C124.167 23.3263 124.087 23.5641 123.901 23.7226C123.714 23.8811 123.501 23.9603 123.209 23.9603H114.053C114.212 24.9378 114.665 25.7303 115.41 26.3643C116.155 26.9983 117.034 27.3417 118.045 27.3417C119.269 27.3417 120.228 26.9191 120.946 26.0737C121.159 25.9152 121.399 25.8359 121.612 25.8359C121.692 25.8359 121.771 25.8624 121.904 25.8888C122.091 25.968 122.25 26.1001 122.357 26.285C122.463 26.4435 122.543 26.6285 122.543 26.8398C122.543 27.1304 122.437 27.3681 122.197 27.5531C121.718 28.0286 121.159 28.4248 120.52 28.689C119.802 29.0324 118.977 29.1909 118.045 29.1909ZM113.999 22.4017H122.197C122.064 21.3979 121.612 20.5525 120.84 19.9185C120.068 19.2581 119.136 18.9146 118.098 18.9146C117.034 18.9146 116.129 19.2581 115.357 19.9449C114.585 20.5789 114.132 21.3979 113.999 22.4017Z" fill="#191B1F"/>
<path d="M127.654 28.7947C127.467 28.9797 127.228 29.0589 126.962 29.0589C126.695 29.0589 126.456 28.9797 126.27 28.7947C126.083 28.6098 125.977 28.3985 125.977 28.1343V13.7369C125.977 13.4727 126.083 13.235 126.27 13.0501C126.456 12.8651 126.695 12.7859 126.962 12.7859C127.228 12.7859 127.467 12.8651 127.654 13.0501C127.84 13.235 127.946 13.4463 127.946 13.7369V28.1343C127.946 28.3721 127.84 28.6098 127.654 28.7947Z" fill="#191B1F"/>
<path d="M135.878 29.191C134.201 29.191 132.764 28.6099 131.566 27.4211C130.369 26.2323 129.783 24.8058 129.783 23.1415C129.783 21.4508 130.369 20.0243 131.566 18.8355C132.764 17.6731 134.201 17.0655 135.878 17.0655C137.475 17.0655 138.859 17.6203 140.057 18.7034V13.7105C140.057 13.4464 140.137 13.2086 140.323 13.0237C140.509 12.8388 140.749 12.7595 141.015 12.7595C141.281 12.7595 141.521 12.8388 141.707 13.0237C141.894 13.2086 142 13.42 142 13.7105V28.1079C142 28.3721 141.894 28.5834 141.707 28.7684C141.521 28.9533 141.281 29.0325 141.015 29.0325C140.749 29.0325 140.509 28.9533 140.323 28.7684C140.137 28.5834 140.057 28.3721 140.057 28.1079V27.5532C138.859 28.6363 137.475 29.191 135.878 29.191ZM135.878 27.289C137.049 27.289 138.034 26.8663 138.859 26.0474C139.658 25.2549 140.057 24.2774 140.057 23.1415C140.057 21.9791 139.658 21.0017 138.859 20.2092C138.061 19.4167 137.076 19.0204 135.878 19.0204C134.707 19.0204 133.722 19.4167 132.924 20.2092C132.125 21.0017 131.699 22.0056 131.699 23.1415C131.699 24.2774 132.099 25.2549 132.924 26.0474C133.722 26.8663 134.707 27.289 135.878 27.289Z" fill="#191B1F"/>
<defs>
<linearGradient id="paint0_linear" x1="16.6667" y1="14.1972" x2="24.5959" y2="4.93092" gradientUnits="userSpaceOnUse">
<stop stop-color="#0080EE"/>
<stop offset="1" stop-color="#01C5F6"/>
</linearGradient>
<linearGradient id="paint1_linear" x1="11.2174" y1="21.7183" x2="17.2614" y2="13.2952" gradientUnits="userSpaceOnUse">
<stop stop-color="#725BFF"/>
<stop offset="1" stop-color="#9665FB"/>
</linearGradient>
<linearGradient id="paint2_linear" x1="4.49095" y1="35.9999" x2="10.2898" y2="21.097" gradientUnits="userSpaceOnUse">
<stop stop-color="#3C31D6"/>
<stop offset="0.9804" stop-color="#2880FA"/>
</linearGradient>
<linearGradient id="paint3_linear" x1="28.2464" y1="2.19718" x2="25.3795" y2="6.10512" gradientUnits="userSpaceOnUse">
<stop stop-color="#00E5CC"/>
<stop offset="0.9358" stop-color="#10DCC6"/>
</linearGradient>
</defs>
</svg>
