<svg width="119" height="31" viewBox="0 0 119 31" fill="none" xmlns="http://www.w3.org/2000/svg">
<path d="M18.6878 22.0144H0.943359V8.60761C0.943359 3.85251 4.82495 0 9.61594 0H18.6878C24.8096 0 29.778 4.93121 29.778 11.0072C29.778 17.0831 24.8096 22.0144 18.6878 22.0144Z" fill="url(#paint0_linear)"/>
<path d="M9.81557 8.8059C4.38134 6.09814 3.93773 3.41239 4.4257 1.71729C2.31855 3.2803 0.943359 5.78994 0.943359 8.60778V22.0145H18.6878C21.3051 22.0145 23.7006 21.1119 25.5859 19.615C24.6543 13.0987 17.2239 12.4823 9.81557 8.8059Z" fill="url(#paint1_linear)"/>
<path d="M0.943359 11.0068V22.014V25.14C0.943359 28.7504 4.78059 31.1059 8.04113 29.4989L9.10579 28.9705C14.4291 26.3288 13.8746 18.6238 8.24075 16.7526C4.20389 15.4317 0.943359 14.5511 0.943359 11.0068Z" fill="url(#paint2_linear)"/>
<path d="M10.9468 0C12.2332 1.43093 14.9836 3.23611 20.9058 4.40287C24.3216 5.08532 27.0942 6.38416 29.3122 7.85912C27.9592 3.32417 23.7006 0 18.6878 0H10.9468Z" fill="url(#paint3_linear)"/>
<path d="M35.4885 23.4655V11.1594C35.4885 10.9275 35.5688 10.7391 35.7295 10.5941C35.8901 10.4347 36.0873 10.355 36.321 10.355H39.9793C41.133 10.355 42.1188 10.7391 42.9366 11.5073C43.7399 12.261 44.1415 13.2177 44.1415 14.3773C44.1415 15.5224 43.7399 16.4718 42.9366 17.2255C42.1188 17.9937 41.133 18.3778 39.9793 18.3778H37.1315V23.4655C37.1315 23.7989 36.9928 24.0308 36.7153 24.1612C36.4524 24.2917 36.1822 24.2917 35.9047 24.1612C35.6273 24.0308 35.4885 23.7989 35.4885 23.4655ZM37.1315 11.9856V16.7472H40.0012C40.6876 16.7472 41.2864 16.508 41.7975 16.0297C42.2795 15.5513 42.5204 14.9861 42.5204 14.3338C42.5204 13.6815 42.2722 13.1162 41.7756 12.6379C41.3083 12.2031 40.7095 11.9856 39.9793 11.9856H37.1315Z" fill="#191B1F"/>
<path d="M49.5795 24.4004C48.1337 24.4004 46.8997 23.8931 45.8774 22.8784C44.8551 21.8638 44.3439 20.6462 44.3439 19.2258C44.3439 17.7763 44.8551 16.5515 45.8774 15.5513C46.8997 14.5367 48.1337 14.0294 49.5795 14.0294C51.0107 14.0294 52.2375 14.5295 53.2598 15.5296C54.2675 16.5008 54.7786 17.7111 54.7932 19.1605V23.422C54.7932 23.6684 54.7129 23.8713 54.5523 24.0308C54.3916 24.1902 54.1871 24.2699 53.9389 24.2699C53.7052 24.2699 53.5154 24.1902 53.3693 24.0308C53.2233 23.8713 53.1503 23.6684 53.1503 23.422L53.1283 22.8784C52.1061 23.8931 50.9231 24.4004 49.5795 24.4004ZM49.5795 22.7697C50.5726 22.7697 51.4197 22.4146 52.1207 21.7044C52.8071 21.0231 53.1503 20.1969 53.1503 19.2258C53.1503 18.2256 52.8071 17.3849 52.1207 16.7037C51.4489 16.0079 50.6018 15.6601 49.5795 15.6601C48.5865 15.6601 47.7394 16.0079 47.0384 16.7037C46.352 17.4139 46.0088 18.2546 46.0088 19.2258C46.0088 20.1824 46.3593 21.0086 47.0603 21.7044C47.7321 22.4146 48.5719 22.7697 49.5795 22.7697Z" fill="#191B1F"/>
<path d="M58.3612 24.0308C58.2152 24.1902 58.0253 24.2699 57.7916 24.2699C57.558 24.2699 57.3608 24.1902 57.2002 24.0308C57.0395 23.8713 56.9592 23.6757 56.9592 23.4437V14.8339C56.9446 14.5005 57.076 14.2686 57.3535 14.1381C57.6456 13.9932 57.9304 13.9932 58.2079 14.1381C58.4999 14.2686 58.6314 14.5005 58.6022 14.8339V15.5731C59.6829 14.544 60.9461 14.0294 62.3919 14.0294H62.4577C62.7205 14.0294 62.925 14.1091 63.071 14.2686C63.2317 14.4135 63.312 14.6019 63.312 14.8339C63.312 15.0803 63.2244 15.2832 63.0491 15.4426C62.8885 15.5876 62.6913 15.6601 62.4577 15.6601H62.3919C61.3697 15.6601 60.4788 16.0297 59.7194 16.7689C58.9746 17.5081 58.6022 18.3996 58.6022 19.4432V23.4437C58.6022 23.6757 58.5218 23.8713 58.3612 24.0308Z" fill="#191B1F"/>
<path d="M64.4645 11.6812C64.4499 11.2899 64.6032 11.0145 64.9245 10.855C65.2604 10.6956 65.5963 10.6956 65.9322 10.855C66.2681 11.0145 66.4214 11.2899 66.3922 11.6812C66.3922 11.9422 66.2973 12.1668 66.1075 12.3553C65.9322 12.5437 65.7058 12.6379 65.4284 12.6379C65.1655 12.6379 64.9391 12.5437 64.7493 12.3553C64.5594 12.1668 64.4645 11.9422 64.4645 11.6812ZM64.6178 23.4437V14.8339C64.6032 14.5005 64.7347 14.2686 65.0121 14.1381C65.3042 13.9932 65.589 13.9932 65.8665 14.1381C66.1586 14.2686 66.29 14.5005 66.2608 14.8339V23.4437C66.29 23.7771 66.1586 24.0163 65.8665 24.1612C65.589 24.2917 65.3042 24.2917 65.0121 24.1612C64.7347 24.0163 64.6032 23.7771 64.6178 23.4437Z" fill="#191B1F"/>
<path d="M73.6832 24.3786C72.2812 24.3786 71.0837 23.9076 70.0906 22.9654V23.4655C70.0906 23.7989 69.9519 24.0308 69.6744 24.1612C69.4115 24.2917 69.1413 24.2917 68.8639 24.1612C68.5864 24.0308 68.4477 23.7989 68.4477 23.4655V11.1594C68.4477 10.8261 68.5791 10.5941 68.842 10.4637C69.1194 10.3332 69.3969 10.3332 69.6744 10.4637C69.9519 10.5941 70.0906 10.8261 70.0906 11.1594V15.4426C71.1275 14.5005 72.3251 14.0294 73.6832 14.0294C75.1291 14.0294 76.3558 14.5367 77.3635 15.5513C78.3712 16.5515 78.875 17.7763 78.875 19.2258C78.875 20.6462 78.3712 21.8638 77.3635 22.8784C76.3266 23.8786 75.0998 24.3786 73.6832 24.3786ZM76.2025 21.7044C76.8889 21.0376 77.2394 20.2114 77.254 19.2258C77.254 18.2111 76.9035 17.3704 76.2025 16.7037C75.5161 16.0079 74.6763 15.6601 73.6832 15.6601C72.6902 15.6601 71.8431 16.0079 71.1421 16.7037C70.4411 17.3704 70.0906 18.2111 70.0906 19.2258C70.0906 20.1679 70.4338 20.9941 71.1202 21.7044C71.8212 22.4001 72.6683 22.748 73.6613 22.748C74.669 22.748 75.5161 22.4001 76.2025 21.7044Z" fill="#191B1F"/>
<path d="M87.7433 23.4655V22.661C86.8232 23.7336 85.7498 24.2699 84.5231 24.2699C83.2525 24.2699 82.2448 23.8134 81.5 22.9002C80.7552 22.0305 80.3682 20.8202 80.339 19.2692V14.8339C80.339 14.6019 80.4193 14.4063 80.5799 14.2468C80.7406 14.0874 80.9377 14.0077 81.1714 14.0077C81.4051 14.0077 81.6022 14.0874 81.7629 14.2468C81.9235 14.4063 82.0038 14.6019 82.0038 14.8339V19.291C82.0184 20.3636 82.2594 21.1898 82.7268 21.7696C83.1941 22.3494 83.8586 22.6393 84.7202 22.6393C85.5527 22.6393 86.2537 22.3349 86.8232 21.7261C87.3928 21.1318 87.6995 20.3708 87.7433 19.4432V14.8556C87.7287 14.5222 87.8601 14.2903 88.1376 14.1599C88.4151 14.0149 88.6925 14.0149 88.97 14.1599C89.2621 14.2903 89.4008 14.5222 89.3862 14.8556V23.4655C89.4008 23.7989 89.2621 24.0308 88.97 24.1612C88.6925 24.2917 88.4078 24.2917 88.1157 24.1612C87.8382 24.0308 87.7141 23.7989 87.7433 23.4655Z" fill="#191B1F"/>
<path d="M94.684 24.3786C93.9245 24.3786 93.2162 24.2337 92.5591 23.9438C91.8434 23.6249 91.3323 23.1683 91.0256 22.5741C90.9526 22.4001 90.9161 22.2479 90.9161 22.1175C90.9161 21.8566 91.0329 21.6609 91.2666 21.5304C91.3834 21.458 91.5222 21.4217 91.6828 21.4217C91.9749 21.4217 92.2159 21.5522 92.4057 21.8131C92.6394 22.1899 92.9461 22.4798 93.3258 22.6828C93.7055 22.8567 94.1582 22.9437 94.684 22.9437C95.2389 22.9437 95.6989 22.806 96.0641 22.5306C96.4876 22.2697 96.692 21.9145 96.6774 21.4652C96.6628 21.0159 96.4219 20.6462 95.9545 20.3564C95.6478 20.1534 95.1367 19.9577 94.4211 19.7693C93.3988 19.4504 92.6467 19.1026 92.1647 18.7257C91.493 18.2329 91.1571 17.6096 91.1571 16.8559C91.1571 15.9862 91.5149 15.2832 92.2305 14.7469C92.873 14.2541 93.669 14.0077 94.6182 14.0077C95.2608 14.0077 95.8669 14.1309 96.4365 14.3773C97.0644 14.6672 97.4953 15.044 97.7289 15.5079C97.7873 15.6093 97.8166 15.7253 97.8166 15.8557C97.8166 16.0007 97.7581 16.1529 97.6413 16.3123C97.5099 16.4718 97.3273 16.5515 97.0936 16.5515C97.0206 16.5515 96.9257 16.5297 96.8089 16.4863C96.1371 15.805 95.4434 15.4644 94.7278 15.4644C94.1728 15.4644 93.7347 15.5586 93.4134 15.747C93.0045 15.9789 92.8 16.3268 92.8 16.7906C92.8 17.211 93.0045 17.5516 93.4134 17.8125C93.6617 17.9865 94.1436 18.1749 94.8592 18.3778C96.0421 18.7547 96.8381 19.1026 97.247 19.4214C97.9334 19.9288 98.2766 20.5883 98.2766 21.4C98.2766 22.2697 97.9334 22.9799 97.247 23.5307C96.5168 24.096 95.6624 24.3786 94.684 24.3786Z" fill="#191B1F"/>
<defs>
<linearGradient id="paint0_linear" x1="14.0557" y1="11.831" x2="20.6634" y2="4.1091" gradientUnits="userSpaceOnUse">
<stop stop-color="#0080EE"/>
<stop offset="1" stop-color="#01C5F6"/>
</linearGradient>
<linearGradient id="paint1_linear" x1="9.51462" y1="18.0988" x2="14.5513" y2="11.0795" gradientUnits="userSpaceOnUse">
<stop stop-color="#725BFF"/>
<stop offset="1" stop-color="#9665FB"/>
</linearGradient>
<linearGradient id="paint2_linear" x1="3.90924" y1="29.9997" x2="8.7416" y2="17.5806" gradientUnits="userSpaceOnUse">
<stop stop-color="#3C31D6"/>
<stop offset="0.9804" stop-color="#2880FA"/>
</linearGradient>
<linearGradient id="paint3_linear" x1="23.7054" y1="1.83099" x2="21.3164" y2="5.0876" gradientUnits="userSpaceOnUse">
<stop stop-color="#00E5CC"/>
<stop offset="0.9358" stop-color="#10DCC6"/>
</linearGradient>
</defs>
</svg>
